<svg width="280" height="282" viewBox="0 0 280 282" fill="none" xmlns="http://www.w3.org/2000/svg">
<path d="M214.789 121.713C214.789 70.3093 173.118 28.6383 121.714 28.6383C70.3098 28.6383 28.6386 70.3092 28.6386 121.713C28.6386 173.116 70.3098 214.788 121.714 214.788C173.118 214.788 214.789 173.116 214.789 121.713ZM243.428 121.713C243.428 150.208 233.598 176.387 217.194 197.126L282.177 261.926L283.155 263.017C287.75 268.634 287.439 276.924 282.205 282.174C276.969 287.424 268.678 287.761 263.047 283.181L261.956 282.202L196.918 217.361C176.212 233.664 150.113 243.426 121.714 243.426C54.4931 243.426 0 188.933 0 121.713C0 54.4927 54.4931 0 121.714 0C188.934 0 243.428 54.4926 243.428 121.713Z" fill="#BE1E2D"/>
</svg>
